<svg xmlns="http://www.w3.org/2000/svg" width="114" height="110" viewBox="0 0 114 110">
    <g fill="none" fill-rule="evenodd">
        <path fill="#8B867C" d="M84.12 15.623v-1.628h29.082v68.689L.226 82.682v-1.629l111.309.075v-65.62zM85.49 2.214h-1.892V.964h5.41v1.25h-1.902V8.53H85.49zM95.162.963h1.604v3.031h2.886V.964h1.605V8.53h-1.605V5.244h-2.886V8.53h-1.604zM108.244.963h4.524v1.252h-2.962v1.78h2.63v1.25h-2.63V7.28h3.1v1.25h-4.662z"/>
        <path fill="#423F39" d="M12.534 25.562L8.501 35.968h8.066l-4.033-10.406zM7.563 39.827L5.545 45.03H.227l10.29-24.913h4.069l10.29 24.913h-5.319l-2.016-5.203H7.563zM28.17 20.272h5.215V40.81h9.075v4.066H28.17zM45.752 45.031h5.215V20.428h-5.215zM68.211 31.489h10.952v2.584c0 3.274-.624 5.961-1.772 7.615-1.74 2.481-4.973 3.79-9.491 3.79-4.346 0-7.338-1.102-9.632-3.514-2.156-2.274-3.164-5.169-3.164-8.994 0-8.097 4.867-12.991 12.9-12.991 3.79 0 6.813.897 9.422 2.826l-1.912 3.446c-1.773-1.413-4.38-2.24-7.058-2.24-4.869 0-7.928 3.377-7.928 8.787 0 2.378.523 4.307 1.564 5.892 1.288 1.93 3.061 2.757 5.842 2.757 4.034 0 6.085-1.757 6.085-5.203v-1.068H68.21v-3.687zM83.196 20.428h3.756l13.002 16.401V20.428h4.728V45.34h-3.475L87.891 28.18v16.85h-4.695z"/>
        <path fill="#8B867C" d="M2.802 94.603c.587 0 .855-.053 1.057-.212.16-.138.29-.455.29-.74 0-.373-.172-.711-.429-.849-.203-.117-.448-.148-.961-.148h-.835v1.949h.878zm-.054-3.137c.48 0 .726-.053.91-.21.18-.15.287-.393.287-.669 0-.307-.128-.583-.352-.742-.14-.106-.418-.159-.845-.159h-.824v1.78h.824zM.225 88.383h2.5c.953 0 1.67.16 2.097.455.482.34.77.944.77 1.622 0 .636-.235 1.08-.78 1.44.415.234.513.308.673.51.31.381.45.816.45 1.357 0 .783-.29 1.398-.824 1.758-.46.308-1.004.425-2.043.425H.225v-7.567zM12.188 88.15h1.817v6.157h2.707v1.408h-4.524zM24.624 92.134c0 1.61.78 2.544 2.14 2.544 1.325 0 2.116-.933 2.116-2.512 0-1.578-.791-2.511-2.127-2.511-1.327 0-2.129.933-2.129 2.48m6.138.031c0 2.374-1.583 3.92-3.998 3.92-2.472 0-4.021-1.536-4.021-3.973 0-1.028.353-1.992.972-2.66.75-.804 1.743-1.208 3.038-1.208 2.436 0 4.009 1.537 4.009 3.921M42.99 95.35c-.524.444-1.466.69-2.65.69-2.493 0-3.786-1.326-3.786-3.848 0-2.564 1.38-3.994 3.827-3.994.941 0 1.669.18 2.353.56l-.567 1.273c-.418-.287-.941-.424-1.594-.424-1.4 0-2.138.89-2.138 2.553 0 .7.129 1.251.396 1.685.332.54.865.784 1.721.784.813 0 1.337-.17 1.894-.604l.544 1.325zM48.751 88.335h1.816v3.148l2.395-3.148h1.904l-2.79 3.402 3.1 4.164h-2.16l-2.449-3.667v3.667h-1.816zM66.322 95.398c-.525.444-1.465.69-2.65.69-2.493 0-3.786-1.326-3.786-3.848 0-2.564 1.378-3.994 3.827-3.994.941 0 1.669.18 2.353.56L65.5 90.08c-.418-.287-.941-.424-1.594-.424-1.4 0-2.138.89-2.138 2.553 0 .7.129 1.251.396 1.685.332.54.865.784 1.72.784.814 0 1.338-.17 1.894-.604l.545 1.325zM72.2 88.383h1.817v2.967h2.578v-2.967h1.817v7.566h-1.817v-3.19h-2.578v3.19h-1.818zM87.974 90.142l-1.143 2.988h2.277l-1.134-2.988zm-1.465 4.323l-.567 1.483h-1.848l3.164-7.66h1.432l3.156 7.66h-1.851l-.567-1.483h-2.92zM97.88 95.901h1.816v-7.566H97.88zM106.003 88.383h1.315l3.752 4.737v-4.737h1.647v7.661h-1.229l-3.85-4.98v4.885h-1.635zM59.905 104.963h3.484v.849c0 1.08-.192 1.907-.576 2.414-.545.743-1.54 1.124-2.931 1.124-1.357 0-2.277-.327-2.982-1.07-.663-.7-.963-1.58-.963-2.786 0-1.24.365-2.226 1.07-2.947.715-.71 1.646-1.05 2.898-1.05 1.207 0 2.127.276 2.95.87l-.652 1.209c-.524-.424-1.325-.679-2.127-.679-1.402 0-2.257.974-2.257 2.554 0 .677.14 1.24.417 1.695.354.573.845.806 1.669.806 1.134 0 1.689-.466 1.689-1.41v-.308h-1.69v-1.27zM72.4 105.005c.525 0 .79-.074.962-.265.15-.17.278-.507.278-.74 0-.287-.15-.647-.32-.806-.17-.149-.418-.202-.878-.202h-.812v2.013h.77zm-.77 4.198h-1.742v-7.566h2.5c1.08 0 1.744.159 2.224.52.526.391.815 1.026.815 1.779 0 .614-.237 1.144-.654 1.483-.31.254-.705.477-1.026.572l2.202 3.212h-1.913l-1.926-2.915h-.48v2.915zM82.845 105.456c0 1.61.78 2.543 2.14 2.543 1.325 0 2.116-.933 2.116-2.511 0-1.579-.791-2.512-2.127-2.512-1.327 0-2.13.933-2.13 2.48m6.139.032c0 2.373-1.584 3.92-3.999 3.92-2.47 0-4.02-1.536-4.02-3.973 0-1.029.352-1.992.972-2.66.75-.805 1.743-1.209 3.038-1.209 2.436 0 4.009 1.537 4.009 3.922M96.64 101.636v4.864c0 .583.054.848.203 1.048.193.245.557.383 1.038.383.523 0 .908-.16 1.08-.456.117-.18.16-.445.16-.975v-4.864h1.818v4.238c0 1.357-.128 1.972-.513 2.47-.514.657-1.379.996-2.545.996-1.262 0-2.181-.403-2.662-1.156-.29-.466-.396-1.09-.396-2.31v-4.238h1.817zM109.616 105.318c.557 0 .824-.074 1.017-.276.182-.201.289-.509.289-.848 0-.38-.14-.73-.353-.921-.182-.148-.45-.212-.953-.212h-.684v2.257h.684zm-.684 3.952h-1.743v-7.566h2.395c1.113 0 1.796.17 2.3.562.534.424.832 1.113.832 1.928 0 .89-.352 1.633-.96 2.034-.45.299-1.092.446-1.904.446h-.92v2.596z"/>
        <path fill="#423F39" d="M32.192 50.754H50.91v4.066H37.268v5.79h12.564v4.065H37.268v6.616l13.754-.001v4.066l-18.83.001zM54.882 50.752h3.756L74.315 67.3V50.75h4.728l-.263 24.651h-3.477l-15.726-16.75v16.85h-4.695zM91.296 54.82l-8.1-.001v-4.066l21.812-.002v4.066l-8.46.003v20.538h-5.252zM22.371 75.402L22.34 60.61l-7.163 11.923h-2.537L5.512 60.919 5.51 75.402H.224l.071-24.648h4.66l9.039 15.196 9.04-15.196h4.623l-.001 24.648z"/>
    </g>
</svg>
