<svg xmlns="http://www.w3.org/2000/svg" width="37" height="92" viewBox="0 0 37 92">
    <g fill="#999" fill-rule="nonzero" stroke="#999">
        <path d="M29 19H8L18.5 0 29 19zm-18.722-1.318h16.444L18.5 2.803l-8.222 14.879zM27 26H12v-7h15v7zm-13.615-1.398h12.23v-4.204h-12.23v4.204z"/>
        <path d="M36 43H1v-4.935l.151-.186c.982-1.206 2.098-2.434 3.177-3.623 2.904-3.198 5.906-6.505 6.676-9.731l.125-.525h14.748l.12.532c.733 3.235 3.783 6.58 6.733 9.815 1.055 1.157 2.145 2.352 3.116 3.529l.154.187V43zM2.388 41.64h32.224v-3.096c-.91-1.091-1.93-2.209-2.917-3.292-2.916-3.197-5.927-6.499-6.914-9.893H12.213c-1.015 3.375-3.978 6.639-6.848 9.8-1.011 1.114-2.055 2.263-2.977 3.383v3.099zM36 77H1V49h35v28zM2.388 75.623h32.224V50.377H2.388v25.246z"/>
        <path d="M33 49h-9v-7h9v7zm-7.607-1.37h6.214v-4.26h-6.214v4.26zM13 49H4v-7h9v7zm-7.607-1.37h6.214v-4.26H5.393v4.26zM18.5 73C12.71 73 8 68.29 8 62.5S12.71 52 18.5 52 29 56.71 29 62.5 24.29 73 18.5 73zm0-19.647c-5.044 0-9.147 4.104-9.147 9.147 0 5.044 4.103 9.147 9.147 9.147 5.044 0 9.147-4.103 9.147-9.147 0-5.043-4.103-9.147-9.147-9.147z"/>
        <path d="M22 64h-5v-8h1.328v6.59H22zM18 76h2v11h-2zM11 76h2v12h-2zM4 76h2v15H4zM26 76h2v12h-2zM33 76h2v15h-2z"/>
    </g>
</svg>
