<svg xmlns="http://www.w3.org/2000/svg" width="49" height="109" viewBox="0 0 49 109">
    <g fill="#999" fill-rule="nonzero" stroke="#999">
        <path d="M24.5 36c-3.205 0-7.5-4.214-7.5-8.523C17 23.145 20.154 20 24.5 20s7.5 3.145 7.5 7.477C32 31.786 27.705 36 24.5 36zm0-14.4c-3.38 0-5.833 2.471-5.833 5.877 0 3.718 3.912 6.923 5.833 6.923 1.92 0 5.833-3.205 5.833-6.923 0-3.406-2.452-5.877-5.833-5.877zM5.5 9C3.57 9 2 7.565 2 5.8 2 4.152 3.364 1 5.5 1S9 4.152 9 5.8C9 7.565 7.43 9 5.5 9zm0-6.4c-.654 0-1.75 2.004-1.75 3.2 0 .882.784 1.6 1.75 1.6s1.75-.718 1.75-1.6c0-1.196-1.095-3.2-1.75-3.2zM11.083 10H1.917C1.41 10 1 9.776 1 9.5s.41-.5.917-.5h9.166c.507 0 .917.224.917.5s-.41.5-.917.5z"/>
        <path d="M4 14c-.365 0-.719-.168-.895-.46l-2-3.335c-.246-.412-.047-.912.448-1.118.496-.203 1.094-.039 1.342.373l2 3.334c.246.412.047.912-.448 1.118-.144.06-.297.088-.447.088z"/>
        <path d="M8.125 14h-5.25C2.392 14 2 13.776 2 13.5s.391-.5.875-.5h5.25c.484 0 .875.224.875.5s-.391.5-.875.5z"/>
        <path d="M9 14c-.15 0-.303-.029-.447-.088-.494-.206-.694-.706-.448-1.118l2-3.335c.249-.412.85-.574 1.342-.373.495.206.694.707.448 1.119l-2 3.334c-.176.292-.53.461-.895.461zM11.416 38c-.411 0-.785-.249-.89-.622L5.028 17.664a.768.768 0 0 1 .269-.802l1.985-1.643c.22-.184.53-.26.827-.197a.896.896 0 0 1 .648.501l7.18 16.428c.185.422-.048.898-.518 1.063-.477.169-1.005-.042-1.189-.465l-6.69-15.308-.602.497 5.37 19.242c.121.439-.176.885-.668.995a.988.988 0 0 1-.223.025z"/>
        <path d="M10.518 94a.84.84 0 0 1-.838-.887l1.679-28.486.782-14.986-4.01-6.3a.836.836 0 0 1 .01-.914l6.715-10.054a.84.84 0 0 1 1.098-.272c17.979 9.707 20.2 19.201 20.287 19.6.026.19 1.607 12.295 3.746 24.56a.835.835 0 0 1-.457.897c-7.62 3.718-16.048 8.068-17.909 9.42.258.287.689.618 1.06.827a.838.838 0 0 1-.081 1.499l-11.751 5.027a.834.834 0 0 1-.331.069zM9.84 42.903l3.86 6.066a.83.83 0 0 1 .13.493l-.797 15.257-1.598 27.14 9.167-3.923c-.36-.349-.688-.776-.821-1.25-.222-.786-.43-1.53 18.444-10.757-2.092-12.088-3.623-23.825-3.64-23.943-.007-.02-2.17-8.884-18.76-18.044l-5.985 8.96zM24.5 21c-.276 0-.5-.358-.5-.8v-6.4c0-.442.224-.8.5-.8s.5.358.5.8v6.4c0 .442-.224.8-.5.8zM28.875 22a.88.88 0 0 1-.67-.305.838.838 0 0 1 .108-1.203l5.25-4.292a.888.888 0 0 1 1.232.106c.31.362.263.9-.108 1.203l-5.25 4.292a.887.887 0 0 1-.562.199zM19.807 26a.816.816 0 0 1-.711-.395c-.21-.365-.063-.82.327-1.016.13-.064 3.212-1.589 6.596-1.589 3.386 0 6.432 1.526 6.56 1.592.39.197.535.652.323 1.016-.212.362-.701.499-1.091.301-.028-.014-2.825-1.41-5.792-1.41-2.969 0-5.805 1.398-5.833 1.412a.847.847 0 0 1-.38.089z"/>
        <path d="M35.15 24H30.85c-.47 0-.849-.224-.849-.5s.38-.5.849-.5h4.302c.47 0 .849.224.849.5s-.38.5-.85.5zM22.125 22a.886.886 0 0 1-.562-.2l-5.25-4.292a.839.839 0 0 1-.108-1.203.892.892 0 0 1 1.232-.106l5.25 4.293c.371.303.419.84.108 1.203a.88.88 0 0 1-.67.305zM19.15 24h-4.3c-.47 0-.85-.224-.85-.5s.38-.5.85-.5h4.3c.47 0 .85.224.85.5s-.38.5-.85.5zM32.5 40c-.276 0-.5-.371-.5-.83V27.83c0-.459.224-.83.5-.83s.5.371.5.83v11.34c0 .459-.224.83-.5.83zM37.923 57a.954.954 0 0 1-.554-.175.846.846 0 0 1-.185-1.225l4.154-5.25a.961.961 0 0 1 1.293-.176c.407.29.49.838.186 1.225l-4.155 5.25a.941.941 0 0 1-.74.351z"/>
        <path d="M47.125 53a1 1 0 0 1-.277-.039l-5.25-1.5c-.458-.13-.705-.556-.553-.95.153-.393.65-.602 1.107-.473l5.25 1.5c.458.13.705.555.553.949-.123.314-.465.513-.83.513z"/>
        <path d="M37.917 64a.996.996 0 0 1-.533-.152c-.412-.26-.507-.768-.214-1.133l9.166-11.374c.294-.366.867-.45 1.28-.19.412.26.507.769.214 1.134L38.664 63.66a.958.958 0 0 1-.747.34zM41.83 64a.831.831 0 0 1-.83-.834c0-.462.37-.835.83-.835.003 0 .961-.023 1.279-.66.411-.83.15-1.478.14-1.506a.844.844 0 0 1 .425-1.093.823.823 0 0 1 1.086.404c.063.14.597 1.394-.167 2.94-.62 1.251-2.03 1.584-2.764 1.584zM39.2 52a.785.785 0 0 1-.625-.313l-6.4-8.333a.859.859 0 0 1 .125-1.172.78.78 0 0 1 1.125.13l6.4 8.333c.275.36.22.884-.125 1.173a.78.78 0 0 1-.5.182zM12.851 51a.851.851 0 0 1-.787-.559c-.177-.454.026-.973.453-1.166.053-.027 1.75-.899 3.896-4.825a.824.824 0 0 1 1.161-.329c.408.248.547.798.311 1.228-2.466 4.516-4.49 5.489-4.711 5.584a.81.81 0 0 1-.323.067zM39.139 101H9.861c-.476 0-.861-.224-.861-.5s.385-.5.861-.5h29.278c.476 0 .861.224.861.5s-.385.5-.861.5z"/>
        <path d="M9 105c-.15 0-.303-.03-.447-.088-.494-.205-.694-.707-.448-1.118l2-3.335c.249-.412.85-.574 1.342-.373.495.206.694.707.448 1.119l-2 3.334c-.176.292-.53.461-.895.461z"/>
        <path d="M41.182 104H6.818c-.452 0-.818-.224-.818-.5s.366-.5.818-.5h34.364c.452 0 .818.224.818.5s-.366.5-.818.5z"/>
        <path d="M40 105c-.365 0-.719-.17-.895-.46l-2-3.334c-.246-.412-.047-.914.448-1.119.496-.203 1.093-.039 1.341.373l2 3.334c.246.412.048.913-.447 1.118A1.193 1.193 0 0 1 40 105zM14.813 73a.807.807 0 0 1-.706-.427.864.864 0 0 1 .303-1.153c10.814-6.437 10.965-19.445 10.965-19.575.002-.467.365-.845.812-.845h.002c.448 0 .811.378.811.845 0 .573-.133 14.111-11.784 21.043a.78.78 0 0 1-.403.112zM36.5 99c-.276 0-.5-.386-.5-.864V80.864c0-.478.224-.864.5-.864s.5.386.5.864v17.272c0 .478-.224.864-.5.864zM32.5 97c-.276 0-.5-.373-.5-.833V82.833c0-.46.224-.833.5-.833s.5.373.5.833v13.334c0 .46-.224.833-.5.833zM26.5 98c-.276 0-.5-.383-.5-.857V86.857c0-.474.224-.857.5-.857s.5.383.5.857v10.286c0 .474-.224.857-.5.857zM21.5 99c-.276 0-.5-.391-.5-.875v-5.25c0-.484.224-.875.5-.875s.5.391.5.875v5.25c0 .484-.224.875-.5.875zM16.5 98c-.276 0-.5-.373-.5-.833v-3.334c0-.46.224-.833.5-.833s.5.373.5.833v3.334c0 .46-.224.833-.5.833zM12.5 97c-.276 0-.5-.335-.5-.75v-1.5c0-.415.224-.75.5-.75s.5.335.5.75v1.5c0 .415-.224.75-.5.75zM20.5 88c-.276 0-.5-.391-.5-.875v-5.25c0-.484.224-.875.5-.875s.5.391.5.875v5.25c0 .484-.224.875-.5.875zM28.5 39c-.276 0-.5-.335-.5-.75v-1.5c0-.414.224-.75.5-.75s.5.335.5.75v1.5c0 .415-.224.75-.5.75zM29.5 81c-.276 0-.5-.342-.5-.765v-8.47c0-.423.224-.765.5-.765s.5.342.5.765v8.47c0 .423-.224.765-.5.765zM6.5 108c-.276 0-.5-.373-.5-.833v-3.334c0-.46.224-.833.5-.833s.5.373.5.833v3.334c0 .46-.224.833-.5.833z"/>
        <path d="M41.5 108c-.276 0-.5-.373-.5-.833v-3.334c0-.46.224-.833.5-.833s.5.373.5.833v3.334c0 .46-.224.833-.5.833z"/>
    </g>
</svg>
